<?xml version="1.0" standalone="no"?><svg xmlns="http://www.w3.org/2000/svg" viewBox="0 0 1440 320"><path fill="#0099ff" fill-opacity="1" d="M0,160L20,144C40,128,80,96,120,80C160,64,200,64,240,69.3C280,75,320,85,360,112C400,139,440,181,480,170.7C520,160,560,96,600,64C640,32,680,32,720,69.3C760,107,800,181,840,186.7C880,192,920,128,960,117.3C1000,107,1040,149,1080,138.7C1120,128,1160,64,1200,64C1240,64,1280,128,1320,149.3C1360,171,1400,149,1420,138.7L1440,128L1440,320L1420,320C1400,320,1360,320,1320,320C1280,320,1240,320,1200,320C1160,320,1120,320,1080,320C1040,320,1000,320,960,320C920,320,880,320,840,320C800,320,760,320,720,320C680,320,640,320,600,320C560,320,520,320,480,320C440,320,400,320,360,320C320,320,280,320,240,320C200,320,160,320,120,320C80,320,40,320,20,320L0,320Z"></path></svg>